# xmcd
#
# Track frame offsets:
#	150
#	18042
#	34938
#	50007
#	69831
#	89655
#	106720
#	123104
#	141582
#	158017
#	174204
#	191330
#	208431
#	222897
#	239643
#	257648
#	272280
#	286780
#	303416
#	308857
#	311529
#	315340
#	317863
#	323710
#
# Disc length: 4361 seconds
#
# Revision: 3
# Processed by: cddbd v1.5.2PL0 Copyright (c) Steve Scherf et al.
# Submitted via: audiograbber 1.83.01
#
DISCID=4d110718
DTITLE=Various Artist - CDX 350
DYEAR=2004
DGENRE=Country
TTITLE0=Trent Willmon - Dixie Rose Deluxe's
TTITLE1=Christy Sutherland - Frredom
TTITLE2=Nitty Gritty Dirt Band - It's a new day
TTITLE3=The Notorious Cherry Bombs - It's hard to kiss the lips at night
TTITLE4=The Notorious Cherry Bombs - It's hard to kiss the lips at night (edit)
TTITLE5=Billy Dean - Let them be little
TTITLE6=Toby Keith - Stays in Mexico
TTITLE7=Gene Watson - What a difference a day made
TTITLE8=Ray Charles and van Morrison - Crazy love
TTITLE9=Lynn Anderson - Cry
TTITLE10=Royal Wade Kimes - Feelin' stud
TTITLE11=Jay Teter - Football, beer and you
TTITLE12=Grand Staff - Tears only run one way
TTITLE13=Ray Herndon - My dog thinks I'm Elvis
TTITLE14=Cody Widner - Drinkin' doubles
TTITLE15=Kevin Montgomery - Tennessee girl
TTITLE16=Rob Hawkins - The man I am
TTITLE17=Nancy Hayes - If I were brave
TTITLE18=Jeff Foxworthy - Jeff on $ 1.000.000
TTITLE19=Jeff Foxworthy - Jeff on chickens and cannons
TTITLE20=Jeff Foxworthy - Jeff on testiculars
TTITLE21=Jeff Foxworthy - Jeff on airport security
TTITLE22=Jeff Foxworthy - Jeff on dream interpreters
TTITLE23=Jeff Foxworthy - Jeff on being gay vs being married
EXTD=
EXTT0=
EXTT1=
EXTT2=
EXTT3=
EXTT4=
EXTT5=
EXTT6=
EXTT7=
EXTT8=
EXTT9=
EXTT10=
EXTT11=
EXTT12=
EXTT13=
EXTT14=
EXTT15=
EXTT16=
EXTT17=
EXTT18=
EXTT19=
EXTT20=
EXTT21=
EXTT22=
EXTT23=
PLAYORDER=
